<svg width="1047.92" height="1248.68" xmlns="http://www.w3.org/2000/svg">
 <title>rocket.svg</title>
 <g>
  <title>Layer 1</title>
  <g id="svg_4">
   <path fill="#CBFFFF" stroke="#000" stroke-width="0" opacity="undefined" d="m875.71091,868.14574c-131.73,103.60902 -355.82915,38.51467 -500.76475,-145.45774c-144.9356,-183.97241 -155.63212,-416.91338 -23.90211,-520.5224c131.73,-103.60902 355.82915,-38.51467 500.76475,145.45774c144.9356,183.97241 155.63212,416.91338 23.90211,520.5224z" id="svg_44"/>
   <path fill="#CBFFFF" stroke="#000" stroke-width="0" opacity="undefined" d="m491.86779,1139.84384c-214.60994,-3.55719 -384.83747,-223.66939 -380.38499,-491.85566c4.45249,-268.18627 181.89306,-482.53582 396.503,-478.97864c214.60994,3.55719 384.83747,223.66939 380.38499,491.85566c-4.45249,268.18627 -181.89306,482.53582 -396.503,478.97864z" id="svg_42"/>
  </g>
  <g id="svg_1">
   <path id="svg_2" color="#000" d="m877.88112,40.03542c-118.19831,28.89225 -232.5264,207.43648 -278.93686,342.98214c-97.4835,8.64148 -128.03343,180.47268 -128.03343,180.47268c39.6155,24.89357 120.91656,-117.00869 120.91656,-117.00869l2.70293,131.38692l64.6738,-71.89131l32.45564,-6.00948l-7.8748,144.85525c0,0 66.13984,50.63231 84.15421,-203.68775c37.08826,-135.42402 158.3249,-249.79173 109.94196,-401.09977l0,0.00001l-0.00001,0zm-571.97091,654.13969a42.59864,84.1228 0 0 0 -41.1663,63.52256a72.78757,60.62426 0 0 0 -19.19763,-2.14843a72.78757,60.62426 0 0 0 -10.26547,0.60787a35.08118,47.4264 0 0 0 -32.69312,-30.2223a35.08118,47.4264 0 0 0 -34.49824,38.84797a69.0885,68.77899 0 0 0 -68.59663,68.77441a69.0885,68.77899 0 0 0 69.09108,68.7779a69.0885,68.77899 0 0 0 50.7065,-22.06472a68.25324,88.09291 0 0 0 -9.54019,44.91919a68.25324,88.09291 0 0 0 68.25173,88.09282a68.25324,88.09291 0 0 0 68.25506,-88.09282a68.25324,88.09291 0 0 0 -7.83899,-40.98009a47.25224,41.20303 0 0 0 30.50713,-38.52616a47.25224,41.20303 0 0 0 -23.44221,-35.59147a42.59864,84.1228 0 0 0 3.15825,-31.79532a42.59864,84.1228 0 0 0 -42.59754,-84.12144a42.59864,84.1228 0 0 0 -0.13323,0l-0.00017,0l-0.00002,0.00001l-0.00001,0.00002zm341.74675,205.64448c-70.7966,13.60112 -79.33291,52.94232 -105.80113,110.10229c-45.93648,-27.51592 -112.03269,9.39146 -115.35432,51.61093c-16.53966,17.87252 -25.83322,42.12712 -25.83305,67.41923c0,52.62266 39.42597,95.28194 88.06072,95.2821c44.11888,-0.0015 81.42763,-35.32788 87.28015,-82.64261c57.70581,6.90923 79.3917,-49.32938 47.07661,-84.98574c22.02496,-4.92836 36.9925,-19.37598 36.99,-35.70529c-0.00084,-12.99825 -9.53786,-25.0663 -25.1957,-31.88301c20.46433,-31.27514 79.43716,-77.5377 12.77672,-89.1979l-0.00001,0l0.00001,0zm-401.75279,166.90034a38.30297,60.19507 0 0 0 -38.304,60.19434a38.30297,60.19507 0 0 0 13.10196,45.32871a45.10442,49.03593 0 0 0 -2.83965,17.11805a45.10442,49.03593 0 0 0 45.10545,49.03683a45.10442,49.03593 0 0 0 22.60319,-6.60088a49.63873,42.16868 0 0 0 33.00205,10.66678a49.63873,42.16868 0 0 0 49.63632,-42.16639a49.63873,42.16868 0 0 0 -29.86629,-38.67891a43.79185,60.3024 20.995169 0 0 8.34644,-16.13012a43.79185,60.3024 20.995169 0 0 -19.26258,-71.97585a43.79185,60.3024 20.995169 0 0 -50.09846,18.98044a38.30297,60.19507 0 0 0 -31.42443,-25.77302l0.00001,0.00002l-0.00001,0z" fill="#FFFFFF" overflow="visible" paint-order="fill markers stroke"/>
   <path id="svg_3" d="m871.22088,33.37847c-1.14063,-0.01996 -2.32638,0.01664 -3.55844,0.09818c-112.34129,18.51451 -234.82981,186.61496 -264.58901,307.06237c-2.57985,6.07105 -5.22683,16.66528 -9.00677,36.05307c-1.65706,8.49838 -4.47274,9.34969 -6.33965,1.91746c-25.18488,-20.74032 -60.91717,15.55053 -77.07963,43.11539c-9.21744,13.9787 -23.17791,42.37638 -25.53061,51.92943c-0.88716,3.60246 -5.45115,14.21166 -10.1419,23.576c-4.69074,9.36417 -8.52864,18.44828 -8.52864,20.18603c0,1.73775 -0.89365,4.10583 -1.98415,5.26516c-1.09066,1.15917 -3.6124,9.40161 -5.60437,18.314c-5.75027,25.72526 1.33497,41.33704 17.88331,39.40376c3.49698,-0.40852 8.62772,-0.85864 11.40077,-0.99775c31.2524,-7.53457 52.86835,-67.6492 85.63108,-98.43128c7.12571,-8.23695 14.12135,-14.96363 15.54476,-14.95032c1.42325,0.01664 5.0851,6.21549 8.13827,13.78351c6.19126,15.12937 15.31794,39.571 35.47733,31.86353c0,0 -0.64268,1.77336 -2.16951,5.87287c-7.49826,15.08977 -9.92123,22.2238 -18.20539,31.90913l-4.88559,8.26824l-1.7435,-6.47741c-0.95844,-3.56386 -1.11348,-8.47258 -0.34473,-10.90722c2.05859,-6.52084 1.38993,-16.41583 -1.59711,-23.62143c-3.66669,-8.84499 -13.8389,-8.9861 -17.26878,-0.24045c-5.53876,14.12297 -9.10619,31.27198 -8.80508,42.3288c0.39087,14.35027 7.10406,22.88009 21.37046,27.151c21.9367,5.39146 37.20633,-28.03127 54.45046,-55.6542c2.86331,-4.2491 5.85135,-10.35144 6.63875,-13.56235c1.12447,-4.5859 3.7876,-6.6077 12.41882,-9.42857c13.53879,-4.42466 13.20456,-4.43415 13.22237,0.28937c0.01666,2.13545 0.68064,9.82294 1.49619,17.08228c1.73317,15.42707 -0.85318,29.18295 -11.08201,58.91054c-23.85723,69.3362 -23.72017,67.58047 -5.69547,72.8859c39.91177,10.88176 56.9707,-25.53406 78.74185,-55.13718c3.25717,-6.7117 6.77164,-13.79947 7.80968,-15.74989c4.52387,-8.4997 20.01168,-46.49303 24.30439,-59.62241c5.46398,-16.71153 6.66156,-45.74805 2.4363,-59.06662c-1.51234,-4.76662 -5.75027,-12.49005 -9.41662,-17.16348l-6.66806,-8.49887l8.5741,-12.55179c63.53584,-95.28858 112.00688,-238.94275 119.60573,-321.20995c2.62832,-23.63523 10.46032,-73.38062 -24.89959,-73.99415l0,-0.00067l-0.00002,-0.00002l0.00001,-0.00001zm-3.80575,23.74822c1.10732,0.08153 2.01013,0.3799 2.6901,0.90989c9.83097,9.92894 8.42338,59.21505 -16.59213,144.77072c-10.93029,-8.08619 -47.07328,-31.89616 -67.16223,-41.43504c-9.39031,-4.4042 -26.23374,-8.38006 -35.25283,-16.77343c37.37288,-41.30958 99.7083,-88.69819 116.31708,-87.47214l0.00001,0zm-133.28009,103.5728c11.59212,-1.13287 -9.15266,34.35309 -35.98144,85.19723c-19.46576,28.82385 -36.22508,68.29118 -51.31487,103.97267c-8.21187,14.2496 -10.50079,19.26998 -16.26371,35.66619c-2.69377,7.6642 -5.75093,14.4616 -6.7948,15.10624c-3.40456,2.10234 -3.92999,-6.09302 -1.47354,-21.60312c4.41895,-27.90131 13.74298,-42.93983 20.20252,-62.81069c16.86008,-50.83882 48.54632,-109.32753 91.62582,-155.52852l0,-0.00001l0.00002,0.00001zm23.61807,11.61577c1.10233,-0.08986 2.55304,0.34313 4.37814,1.33572c43.32449,19.02038 72.92482,40.04641 79.57122,51.94573c-0.37738,6.44928 -1.42441,13.71128 -9.40047,29.8617c-5.15122,8.27823 -4.53369,11.97986 -5.2205,6.04177c-10.61253,-27.22188 -23.35161,-32.38305 -33.6917,-38.21099c-33.35378,-16.941 -59.73942,11.64373 -70.23271,45.17595c-1.51451,9.46352 -8.43337,-0.45378 -14.58183,7.12721c0,0 0.20984,-4.67376 4.12117,-11.66769c12.77421,-24.06789 37.97175,-71.6695 42.77324,-89.80244c0.42684,-1.10275 1.18093,-1.71645 2.28342,-1.80698l0.00001,0.00001l0.00001,0.00001zm13.9703,63.06412c3.1406,-0.01664 6.35979,0.79242 9.59232,2.60005c-12.42065,-1.95091 -18.03586,4.18221 -23.065,9.62675c-2.09789,3.47882 -3.08331,4.66095 0.89448,8.63549c3.97779,3.97454 3.9533,4.18072 -0.83586,7.35802c-9.14866,6.06955 -5.28512,18.03843 7.91377,24.51517c9.5735,4.69789 15.07995,4.05757 22.33972,-2.59356c13.46952,-12.34029 15.02932,-30.60836 3.47068,-40.03743c-4.18313,-3.41226 -7.08857,-5.77852 -5.47448,-5.77852c9.12168,0.70006 18.44737,15.87436 18.81708,24.57358c-1.06469,22.59189 -20.66717,46.35841 -58.19443,30.79107c-21.328,-5.46718 -1.03138,-59.59279 24.5417,-59.69064l0.00002,0.00001l0,0.00001zm-1.96134,22.07454c7.46012,0 17.55156,5.11074 14.42262,10.95265c-2.63515,4.88726 -11.964,7.4299 -15.10893,-1.86554c-5.83003,-8.18087 -5.76242,-9.08711 0.68631,-9.08711zm-70.47669,31.06397c1.66222,0 3.02185,0.88177 3.02185,1.9599c0,3.69815 12.07992,4.4418 15.9383,0.98145c3.37275,-3.02471 4.03591,-2.74416 6.99015,2.96397c6.8356,13.20808 19.85396,19.06681 42.35356,19.05515c13.00587,0 28.3283,-4.60571 31.2912,-9.39596c1.72034,-2.78126 7.79353,-2.98927 7.79353,-0.26641c-7.69544,41.7364 -36.85927,79.17361 -58.22374,115.40639c0,1.39912 -9.02975,11.61777 -20.06597,22.70821c-15.90548,15.95773 -20.66901,20.20217 -28.71817,20.87178c-4.44859,-0.39687 -31.06354,-8.97795 -37.8162,-12.49638c-4.27439,-2.22731 -13.0167,-6.7385 -19.42845,-10.02329c-6.41175,-3.28463 -11.65774,-6.95016 -11.65774,-8.14776c0,-2.19353 3.49066,-10.68324 11.3065,-27.49879c11.32599,-24.57924 21.72003,-53.70012 37.40302,-80.25373l6.63225,8.62884c3.51031,3.86371 14.78717,4.47158 16.16928,-0.17223c4.74453,-9.54738 6.36495,-13.57584 -4.61896,-19.25017c-3.54312,-1.83044 -9.67076,-0.68691 -13.68086,2.83417c-2.10139,-1.35518 12.38219,-27.90514 15.31044,-27.90514l0,-0.00001l0.00001,0.00001zm-27.81719,66.2331c-3.16208,0.11981 -5.81122,1.23888 -6.64858,3.41892c-2.2213,5.78401 -1.52683,15.39096 1.31732,18.23295c4.36232,4.35859 10.5281,3.05416 16.24739,-3.43856c6.57979,-7.4695 6.64357,-8.30235 1.07334,-13.86804c-3.00886,-3.00641 -7.92393,-4.50004 -11.98948,-4.34529l0,0.00001l0.00001,0.00001zm-97.11628,40.14476c11.01056,0.1298 7.67946,0.53599 11.84626,0c1.9212,0 1.04987,35.15116 -1.03105,41.60078c-6.99531,11.96522 -13.26234,-0.26441 -43.38144,38.27273c-4.15349,5.49131 -8.56494,11.07462 -9.80366,12.40868c-1.23889,1.33405 -6.24904,8.08386 -11.13414,14.99908c-4.88509,6.91505 -13.62739,18.68158 -19.42845,26.14659c-5.80106,7.46518 -10.54858,14.44462 -10.54858,15.50944c0,1.06465 -1.00023,1.93377 -2.22163,1.93377c-1.22124,0 -2.21347,-0.74881 -2.20848,-1.66403c0.01666,-2.59106 9.29955,-27.888 20.96694,-57.12969c7.61899,-19.0891 17.75723,-48.91486 45.31679,-77.10106c11.98948,-12.43447 15.65834,-14.97628 21.62743,-14.97628l0,-0.00001l0.00001,0zm75.84358,7.75139c-9.1425,0.37657 -13.14926,10.86446 -4.73604,17.56984c1.6041,1.27831 5.75193,2.27773 9.21494,2.21966c5.82837,-0.09818 6.29402,-0.7533 6.29402,-8.82053c0,-7.78002 -0.70446,-8.90273 -6.56397,-10.46859c-1.49452,-0.39936 -2.90295,-0.55429 -4.20895,-0.50037l0,-0.00001zm-34.49191,48.86461c1.64341,-0.13312 10.46282,3.60013 20.48565,8.7102c10.69098,5.4507 23.08831,11.0312 27.54723,12.39886c4.45909,1.36783 9.58849,2.96481 11.39761,3.55237c12.73658,2.78459 -27.11923,18.29004 -42.39919,17.55037c-5.01432,0.60504 -9.11102,-1.92262 -11.29335,-9.20093c-2.92592,-10.48489 -8.16308,-15.23221 -5.96876,-32.93284c0.0433,-0.04327 0.12157,-0.06989 0.23083,-0.07821l0,0.00017l-0.00001,0l-0.00001,0.00001zm139.12861,7.19893c6.37828,14.87028 6.29751,40.39503 -2.94058,68.19916c-11.58829,33.86021 -28.19741,68.17221 -49.03794,96.28318c-8.21055,7.20309 -14.35751,8.91339 -14.35751,3.99434c0,-1.59098 2.34055,-7.8321 5.20118,-13.86804c8.38741,-17.69781 19.43495,-58.52132 20.38156,-75.31688c0.92013,-16.32747 -2.6135,-38.86146 -6.50552,-41.48064c-2.67962,-1.80315 -3.27782,-1.21191 10.89981,-10.75763c13.064,-8.86813 24.65212,-15.54389 36.35899,-27.05349l0.00001,0zm-225.94361,167.30653c-2.1342,-0.02329 -5.66633,3.03819 -12.90678,10.22796c-22.41467,22.41566 -40.87237,55.2673 -59.22864,84.24158c-26.37013,38.52 -49.39451,90.89538 -71.35818,136.65857c-5.49579,11.36384 -9.99234,22.10799 -9.99234,23.87819c0,1.77037 -1.36861,5.18845 -3.0445,7.59547c-5.2613,7.55687 -23.22038,54.40434 -32.51093,84.81035c-4.6178,15.11339 -4.69357,16.43031 -1.2652,21.65836c2.72475,4.15509 4.93105,5.2437 8.70749,4.29653c2.78237,-0.69773 6.75982,-1.51843 8.83757,-1.82328c5.23932,-0.76829 7.06592,-3.20775 11.00074,-14.70655c6.25738,-18.28654 21.60029,-60.95397 23.53664,-65.45285c1.05037,-2.44063 2.98388,-6.93352 4.29688,-9.98419c1.31283,-3.05083 5.52826,-13.03602 9.36782,-22.18819c10.70963,-25.3823 21.73085,-46.79505 32.69629,-70.99756c10.76625,-24.33163 22.90763,-46.64097 34.39749,-69.88932c18.81509,-31.76802 37.14921,-63.24933 51.51655,-94.50533c-3.56443,-6.74931 12.57137,-11.8063 8.78227,-20.6671c-0.77324,-2.01331 -1.55247,-3.13803 -2.83316,-3.15267l0,0.00002l-0.00001,0.00001zm48.17927,7.19577c-0.40669,0 -0.88349,0.09485 -1.43107,0.2957c-4.20895,4.75031 -18.27451,18.53032 -24.81183,29.74123c0,1.44404 -2.49909,5.89683 -5.55241,9.89649c-7.63398,10.0792 -14.43011,24.30218 -22.1477,35.78965c-4.29321,8.49005 -8.75662,16.93551 -9.92074,18.76595c-26.6774,43.11621 -41.55483,79.30541 -65.51948,132.0076c-16.89156,33.36316 -31.72537,71.14067 -48.44923,106.5045c-6.94901,18.00299 -20.89016,43.80879 -28.16859,69.97718c-0.97942,1.87902 -2.46794,8.41135 -3.30796,14.51468c-1.50851,10.95948 -1.43474,11.1382 5.83537,14.44329c6.3981,2.90873 7.86114,2.93003 11.18927,0.16907c2.10622,-1.74723 4.46957,-5.29029 5.25314,-7.87487c0.78357,-2.58474 3.65569,-7.69498 6.38195,-11.35585c2.72607,-3.66087 6.24256,-12.14843 7.81302,-18.85996c1.57046,-6.7117 4.11235,-14.69788 5.64667,-17.74873c1.53432,-3.05067 5.49812,-13.53406 8.81158,-23.29644c29.74139,-86.99655 89.25231,-199.09952 109.91914,-242.94857c7.69028,-15.40294 61.06523,-109.96018 48.45889,-110.02093l-0.00002,0.00001zm-269.58185,45.60145c-11.17428,0.18953 -24.02077,2.78242 -29.83066,6.92919c-14.24892,10.16989 -18.88986,15.159 -25.50779,27.41757c-6.96283,12.89691 -9.75935,14.59805 -14.53653,8.84666c-12.03761,-14.49272 -44.41332,-14.35859 -66.24793,0.2729c-5.36056,3.59214 -11.60677,7.51543 -13.87937,8.72002c-2.27259,1.20459 -4.16414,3.70163 -4.20262,5.54788c-0.10325,4.99126 -9.54202,10.93036 -18.46885,11.62209c-21.74085,1.68484 -52.51844,52.32879 -52.51844,86.41913c0,10.02779 1.23939,14.90855 5.39953,21.28796c14.62197,22.42249 48.64257,48.70337 65.88387,50.89589c17.15753,2.27273 19.48091,5.96173 37.2891,-1.57617c6.33298,0 6.39527,0.12314 4.25774,8.32016c-4.21461,16.16357 -4.42444,20.15158 -1.91254,36.34211c4.68108,30.17205 17.51009,48.01662 40.22952,55.96287c5.41269,1.893 10.02682,3.49064 10.25265,3.54904c0.22583,0.05824 2.97256,-0.86729 6.10532,-2.05725c7.76189,-2.94866 7.183,-8.25109 -1.09932,-10.06873c-12.70927,-2.78908 -18.65305,-11.42807 -24.22961,-35.21124c-3.73947,-15.94857 -4.7004,-24.8628 -3.64305,-33.85255c1.63791,-13.92494 10.75876,-37.3194 17.31757,-44.41865c7.51042,-8.12929 4.58466,-12.90523 -8.13194,-13.27332c-9.78184,-0.28305 -11.73119,0.48723 -17.73376,6.99742c-3.97762,4.31417 -10.57723,8.3383 -16.08785,9.8088c-5.13906,1.37116 -9.87211,3.34769 -10.51944,4.39404c-1.85558,2.99991 -20.48414,5.07913 -24.95155,2.78525c-2.22047,-1.1402 -6.62726,-3.27081 -9.79067,-4.73533c-7.75873,-3.59197 -29.00379,-23.73008 -36.17662,-34.29136c-6.75999,-9.95323 -7.38002,-19.45236 -2.49159,-38.2045c3.37608,-12.95099 12.40017,-32.29835 18.06883,-38.73748c2.35836,-2.67909 5.84286,-3.29245 14.17197,-2.49272c12.47661,1.19777 15.50962,-0.50936 23.57578,-13.27664c2.88163,-4.56111 10.67449,-13.80896 17.31741,-20.55328c10.07878,-10.23263 13.36176,-12.26258 19.84163,-12.26258c6.1343,0 8.78611,1.4304 12.62383,6.81537c7.40566,10.39188 10.86851,24.52799 9.42628,38.49054c-1.60177,15.50794 0.99124,19.03569 13.99645,19.03569c12.07925,0 13.24252,-1.70996 24.17748,-35.50045c4.54136,-14.03344 9.4466,-27.01073 10.89981,-28.84115c1.45339,-1.83044 3.90635,-5.8251 5.45166,-8.87578c7.05942,-13.93693 19.51606,-23.42423 27.97008,-21.30426c6.88023,1.72543 16.67257,14.35926 18.95032,24.45028c2.9599,13.11306 -3.72398,41.76968 -12.55555,53.83723c-2.84282,3.88452 -5.16854,8.12663 -5.16854,9.4284c0,1.30177 -1.00023,2.36925 -2.22163,2.36925c-4.24792,0 -2.18549,6.16707 3.25284,9.72743c8.34111,5.46085 16.21441,4.44313 23.73499,-3.0713c3.66386,-3.66087 7.15219,-6.65612 7.75123,-6.65612c1.49519,0 -1.0447,8.21449 -5.83204,18.85697c-6.60444,14.68142 -7.24678,22.7508 -2.21198,27.7815c6.03804,6.03311 11.37662,5.50545 18.40074,-1.82011c6.50219,-6.78142 15.07296,-33.16964 15.63569,-48.13993c0.30593,-8.13827 -0.36106,-9.23371 -8.09596,-13.31225l-8.42771,-4.44596l1.76614,-11.09243c0.97175,-6.1015 1.7355,-18.58074 1.6947,-27.73291c-0.06328,-14.18986 -0.95177,-18.00299 -6.02405,-25.89316c-5.92047,-9.20958 -15.1459,-17.13703 -26.51619,-22.77975c-3.62256,-1.79766 -9.72489,-2.54796 -16.42942,-2.43431l0.00002,0l0.00002,0.00003zm280.95997,25.55536c-1.06352,-0.03328 -3.14076,0.9297 -6.7918,3.36384c-10.52661,7.12921 -16.47305,18.54613 -23.61141,28.70454c-19.94406,29.24618 -33.06017,53.92226 -53.95934,103.30955c-8.05633,16.36741 -8.08847,17.86837 -0.44566,21.59347c4.49655,2.19153 7.27843,2.35161 10.54858,0.61103c23.03935,-12.38322 21.0627,-32.91986 35.72464,-60.35359c12.65014,-25.70695 24.21978,-55.46632 35.82223,-82.77258c-0.03498,-5.2833 5.90282,-14.35676 2.71276,-14.45628l0,0.00001l0,0.00001zm52.92813,189.71255c-10.22999,0.0416 -21.26887,0.93585 -26.9292,2.4636c-16.01174,4.32133 -36.92505,16.02579 -49.15835,27.51177c-13.84873,13.00257 -21.06786,29.3833 -25.66717,58.2411c-1.6046,10.06739 -3.487,18.29486 -4.18296,18.28155c-0.69596,-0.01664 -6.16994,-1.51094 -12.16519,-3.32807c-12.11972,-3.67369 -37.01565,-4.41434 -42.97808,-1.27731c-2.1207,1.11573 -9.35151,4.23063 -16.06852,6.91937c-10.95761,4.38638 -32.23598,19.92994 -39.34486,28.74347c-1.48802,1.84491 -4.81448,7.75621 -7.39334,13.13686c-4.53886,9.46967 -4.565,10.05591 -0.84252,18.30434c4.77484,10.58008 10.16021,10.99774 16.18877,1.25118c7.70526,-12.45711 40.6925,-41.45003 47.34323,-41.61043c1.6081,-0.03827 4.80832,-1.49547 7.11056,-3.23704c5.40653,-4.09019 21.41593,-6.46409 31.20977,-4.62817c4.2191,0.79091 11.81411,4.89525 16.8784,9.12288c5.06429,4.22763 11.55365,7.68649 14.41928,7.68649c2.86547,0 5.86734,1.06298 6.67122,2.36276c2.26859,3.66753 10.36306,-4.6959 8.59376,-8.87911c-3.48683,-8.24461 -4.65777,-21.08794 -2.70626,-29.68932c1.15761,-5.10259 2.55304,-12.72485 3.10312,-16.93934c2.95973,-22.68157 25.68266,-50.87376 45.64854,-56.63563c2.87396,-0.82936 8.28732,-2.88376 12.02862,-4.56626c18.34861,-8.2521 43.16027,-5.5319 43.16027,4.732c0,8.70321 -4.1445,16.42765 -10.00867,18.65545c-3.10513,1.17963 -7.73324,5.679 -10.28496,10.00033c-2.55187,4.32133 -6.45372,8.82735 -8.67186,10.01348c-2.21797,1.18612 -4.35184,4.36908 -4.74237,7.07213c-0.49562,3.42941 -2.72575,5.32623 -7.37401,6.27589c-10.55858,2.15708 -17.15903,6.48423 -15.69764,10.2897c2.3935,6.23213 11.22324,15.99867 14.58849,16.13645c1.83193,0.07488 6.19176,1.62875 9.68991,3.4517c3.49815,1.82278 7.24529,3.31508 8.32696,3.31508c1.08167,0 4.01459,2.04493 6.51517,4.54347c4.12934,4.12597 4.28355,5.29578 1.69137,12.75647c-3.89618,11.21408 -18.64538,25.5101 -31.30086,30.33945c-5.75725,2.19685 -10.46732,5.23704 -10.46732,6.7568c0,2.88759 13.78144,14.38472 17.24263,14.38472c4.46724,0 7.80752,11.06614 6.54782,21.69415c-1.82793,15.4219 -7.11788,24.80472 -19.35051,34.32714c-9.88226,7.69298 -22.20299,11.18995 -22.20299,6.30185c0,-2.79424 -17.99805,-19.67368 -26.45757,-24.81403c-7.82101,-4.75248 -12.80186,-5.23122 -21.20775,-2.03794c-5.64034,2.14278 -5.68631,2.31417 -1.99714,7.93992c2.07408,3.16299 9.22927,11.15982 15.89932,17.77136c11.78864,11.68532 12.08824,12.28437 10.69165,21.45685c-2.3452,15.40311 -15.95695,37.17096 -23.24387,37.17096c-1.39443,0 -2.53722,0.841 -2.53722,1.86887c0,2.27656 -32.22881,17.58349 -39.96939,18.9836c-3.05317,0.55212 -9.68008,1.07929 -14.72821,1.16998c-8.05016,0.14477 -9.3132,0.86928 -10.2753,5.89882c-0.89831,4.69407 -0.37171,5.54522 2.91444,4.68658c2.20731,-0.57675 7.28875,-0.38223 11.29019,0.43547c21.26421,4.34545 61.7144,-4.78276 77.01768,-17.3813c14.98269,-12.33447 25.60372,-28.2689 28.1556,-42.24427c2.07591,-11.36899 2.65197,-12.19319 8.87987,-12.64281c3.66386,-0.26441 10.16105,-1.2006 14.43561,-2.08004c4.27456,-0.87944 8.52014,-1.43074 9.4361,-1.22523c0.91596,0.20551 1.66539,-0.55845 1.66539,-1.69648c0,-1.13804 2.02295,-2.70987 4.49522,-3.49379c7.43414,-2.3576 21.46455,-23.20142 25.13059,-37.33337c2.87097,-11.06748 2.92509,-14.37823 0.37405,-22.84798c-1.64107,-5.44821 -4.55385,-12.30018 -6.47287,-15.22655c-3.3899,-5.16948 -3.21987,-5.51244 5.92313,-12.10001c26.88225,-19.36866 27.50426,-46.44511 1.49619,-65.12469c-4.58632,-3.29412 -9.80649,-5.98669 -11.59912,-5.98669c-1.79263,0 -4.45276,-1.43673 -5.91014,-3.19144c-2.15335,-2.59256 -0.66166,-5.29378 7.9594,-14.42049c5.83487,-6.17721 11.86008,-11.23221 13.38808,-11.23221c2.53439,0 14.37982,-11.08361 23.15293,-21.66169c10.31494,-12.43747 5.71313,-25.60894 -12.54256,-35.90347c-7.07591,-3.99018 -15.43784,-7.64456 -18.58277,-8.12197c-4.21727,-0.63999 -10.06379,-0.92154 -16.20176,-0.89691l-0.00002,0zm-396.93881,156.24338c-11.54749,0.28072 -22.05177,5.86105 -32.06861,16.93934c-8.43254,9.3264 -18.98496,29.0643 -19.02509,35.58497c-0.01666,1.93211 -0.70663,4.19652 -1.54499,5.03436c-0.83836,0.83768 -1.91853,8.37191 -2.4005,16.74415c-0.71812,12.47474 0.01666,16.9593 4.03341,24.84033c10.04614,19.676 25.77942,34.16606 47.33342,43.59629c7.07025,3.09327 14.77669,3.684 14.65361,1.12122c-0.0433,-0.91521 -7.49576,-9.54738 -16.55649,-19.18179c-24.71573,-26.28104 -29.62731,-40.75129 -22.02729,-64.89405c4.63794,-14.733 24.05807,-39.61809 30.91698,-39.61809c7.63465,0 12.405,12.2714 12.53606,32.2471l0.11991,18.12879l9.3157,4.11781c5.1234,2.26442 11.2812,3.60246 13.68752,2.97379c2.44596,-0.63916 7.29275,-6.64697 10.99092,-13.62426c3.63838,-6.86429 8.49899,-13.54604 10.79906,-14.84948c2.29991,-1.30343 6.50035,-4.61569 9.33518,-7.36135c5.1414,-4.97944 10.886,-6.48206 12.72476,-3.32807c2.87713,4.93502 -10.36573,56.70336 -16.34815,63.90579c-4.32669,5.20908 -3.50765,20.55827 1.29135,24.1837c5.8715,4.43597 21.30668,4.27606 30.94947,-0.3185c5.99191,-2.85498 9.32003,-3.22423 13.95415,-1.55022c5.15888,1.86338 5.99391,3.30926 5.49396,9.49014c-0.32442,4.01014 -3.07132,10.5433 -6.10532,14.518c-3.03418,3.9747 -5.51661,8.13778 -5.51661,9.24969c0,1.1119 -3.67518,5.01056 -8.16758,8.66461c-16.61627,13.5151 -20.09777,19.14734 -13.48251,21.81445c10.41236,4.19819 27.53491,-1.83176 40.67185,-14.32298c3.74414,-3.5602 7.46478,-5.81463 8.27167,-5.0084c0.80688,0.80639 2.0884,-0.42317 2.84615,-2.73333c0.75775,-2.31001 3.77877,-8.82901 6.71369,-14.48539c3.57676,-6.89375 5.33757,-13.98768 5.33757,-21.51875c0,-10.20051 -0.7048,-11.77102 -7.6568,-17.0693c-7.58319,-5.77918 -28.53698,-10.49305 -36.91506,-8.30385c-6.50368,1.69931 -6.742,-2.98644 -0.94012,-18.6423c6.41959,-17.3229 9.0524,-37.6537 6.80796,-52.60868c-1.35163,-9.00657 -2.57769,-10.81853 -9.79716,-14.49854c-8.29565,-4.22864 -24.14867,-6.59672 -28.16859,-4.20568c-1.18726,0.70622 -5.64134,2.03411 -9.89792,2.94783c-4.25657,0.91372 -10.02848,3.15767 -12.82551,4.98876c-4.59399,3.00774 -5.51162,2.94733 -9.47191,-0.63367c-2.41132,-2.18038 -4.38931,-5.05666 -4.39763,-6.39288c-0.02331,-3.64956 -13.21055,-11.74656 -23.55629,-14.46276c-4.10203,-1.07697 -8.06549,-1.57234 -11.91471,-1.47882l0.0005,0l-0.00001,0.00002z" fill="#378CFF"/>
  </g>
 </g>

</svg>